<svg width="80" height="80" viewBox="0 0 80 80" fill="none" xmlns="http://www.w3.org/2000/svg">
<path d="M48.5938 7.96875C48.7933 8.14976 48.9886 8.3355 49.1797 8.52539C49.8665 9.18158 50.5888 9.25576 51.5009 9.41895C53.2276 9.78455 54.6542 11.1244 55.5957 12.5684C56.0657 13.3569 56.4841 14.1696 56.875 15C57.049 14.9613 57.049 14.9613 57.2266 14.9219C57.73 14.8547 58.2237 14.7964 58.7305 14.7656C58.9571 14.7487 58.9571 14.7487 59.1882 14.7314C59.9584 14.9047 60.3863 15.3928 60.9375 15.9375C61.0508 16.0485 61.1641 16.1596 61.2809 16.274C61.6313 16.6215 61.9783 16.9722 62.3242 17.3242C62.5578 17.5618 62.7918 17.799 63.0261 18.0359C63.1787 18.1911 63.1787 18.1911 63.3343 18.3495C63.8057 18.7932 64.1894 18.784 64.8212 18.8226C65.0056 18.8348 65.19 18.847 65.3799 18.8596C65.7681 18.884 66.1563 18.908 66.5445 18.9316C68.8986 19.0889 68.8986 19.0889 69.5381 19.6604C70.0001 20.4099 70.0632 21.1712 70.1854 22.0347C70.2169 22.2447 70.2487 22.4546 70.2807 22.6646C70.355 23.1557 70.4275 23.6471 70.4991 24.1386C70.6394 25.1017 70.7843 26.0641 70.9289 27.0265C71.2676 29.2841 71.6015 31.5424 71.9347 33.8008C72.035 34.4807 72.1354 35.1607 72.2359 35.8406C72.5151 37.7314 72.7941 39.6221 73.0727 41.513C73.0904 41.6329 73.1081 41.7528 73.1263 41.8763C73.144 41.9964 73.1617 42.1165 73.1799 42.2403C73.2158 42.4836 73.2516 42.7269 73.2875 42.9702C73.3053 43.0909 73.323 43.2116 73.3414 43.3359C73.631 45.3014 73.9216 47.2668 74.2127 49.232C74.513 51.2601 74.8125 53.2883 75.1111 55.3166C75.2782 56.4514 75.4457 57.5862 75.6141 58.7208C75.772 59.7845 75.9287 60.8484 76.0847 61.9124C76.142 62.3021 76.1997 62.6918 76.2578 63.0813C76.3371 63.6138 76.4151 64.1463 76.4927 64.679C76.5158 64.8323 76.539 64.9855 76.5629 65.1434C76.8522 67.1567 76.8522 67.1567 76.7188 67.9687C76.3314 68.462 75.9662 68.5449 75.3603 68.6761C75.1756 68.717 74.9908 68.7579 74.8005 68.8C74.5962 68.8434 74.3919 68.8867 74.1876 68.93C73.9738 68.9767 73.76 69.0235 73.5462 69.0705C72.9694 69.1967 72.3921 69.3207 71.8147 69.4443C71.2145 69.5731 70.6147 69.7037 70.0148 69.834C69.0332 70.0471 68.0512 70.2589 67.0692 70.47C65.8214 70.7382 64.5745 71.0107 63.3279 71.2844C62.6291 71.4376 61.93 71.5896 61.231 71.7417C60.8549 71.8236 60.4789 71.906 60.103 71.9887C59.5815 72.1032 59.0596 72.2161 58.5376 72.3285C58.3864 72.3621 58.2351 72.3956 58.0793 72.4302C57.8676 72.4753 57.8676 72.4753 57.6515 72.5213C57.5309 72.5476 57.4103 72.5738 57.286 72.6008C56.3257 72.7303 55.4347 72.6498 54.4871 72.47C54.3796 72.4499 54.2722 72.4298 54.1615 72.4092C53.8048 72.3423 53.4484 72.2737 53.092 72.2052C52.8347 72.1566 52.5772 72.1081 52.3198 72.0597C51.6209 71.9279 50.9223 71.7948 50.2237 71.6614C49.4844 71.5204 48.7448 71.3808 48.0053 71.241C46.5969 70.9747 45.1887 70.7072 43.7806 70.4393C42.2081 70.1401 40.6353 69.8421 39.0625 69.5442C38.6007 69.4568 38.1389 69.3692 37.6772 69.2817C36.3187 69.0242 34.9602 68.7669 33.6016 68.5102C32.8764 68.3733 32.1513 68.2361 31.4262 68.0989C31.2873 68.0726 31.1484 68.0463 31.0053 68.0193C29.2967 67.6958 27.5898 67.3652 25.8846 67.0244C22.6781 66.3869 19.6485 65.8858 16.3672 65.957C15.8556 65.9623 15.3441 65.9656 14.8324 65.9664C14.5236 65.9674 14.2147 65.9712 13.9059 65.9784C12.9159 65.9889 12.9159 65.9889 12.4074 65.736C12.1875 65.4687 12.1875 65.4687 12.1289 64.9121C12.1875 64.375 12.1875 64.375 12.5 64.0625C12.8045 64.0249 12.8045 64.0249 13.1809 64.027C13.3217 64.027 13.4624 64.0271 13.6074 64.0271C13.7596 64.0287 13.9118 64.0303 14.0686 64.032C14.2242 64.0324 14.3799 64.0329 14.5402 64.0333C15.0385 64.0351 15.5368 64.039 16.0352 64.043C16.3725 64.0445 16.7098 64.046 17.0471 64.0472C17.8752 64.0507 18.7032 64.056 19.5312 64.0625C19.5377 63.9212 19.5442 63.7798 19.5509 63.6342C19.6485 61.8063 19.8653 60.003 20.1019 58.1885C20.1446 57.8564 20.1872 57.5242 20.2297 57.1921C20.3446 56.2975 20.4604 55.4031 20.5765 54.5087C20.6982 53.5695 20.8191 52.6303 20.9402 51.6911C21.1433 50.1156 21.3471 48.5402 21.5513 46.9648C21.7871 45.1456 22.0219 43.3262 22.2561 41.5068C22.482 39.7521 22.7087 37.9975 22.9356 36.2429C23.032 35.4979 23.1281 34.7529 23.224 34.0078C23.3369 33.1309 23.4505 32.254 23.5645 31.3772C23.6062 31.0561 23.6476 30.7349 23.6888 30.4137C23.7453 29.9743 23.8025 29.535 23.8599 29.0957C23.8759 28.9696 23.8919 28.8435 23.9084 28.7135C24.2447 26.1672 24.2447 26.1672 25 25.3125C25.796 24.8224 26.6685 24.5228 27.5574 24.2505C27.6762 24.2132 27.7951 24.176 27.9176 24.1376C28.1661 24.0599 28.4148 23.9827 28.6636 23.906C29.0456 23.7883 29.427 23.6689 29.8083 23.5492C30.0508 23.4736 30.2933 23.3981 30.5359 23.3228C30.65 23.2871 30.7641 23.2515 30.8816 23.2148C31.6823 22.9687 31.6823 22.9687 32.0312 22.9687C32.0542 22.8642 32.0772 22.7597 32.1008 22.652C33.0396 18.6323 34.7561 14.674 37.5 11.5625C37.6311 11.3978 37.6311 11.3978 37.7649 11.2299C40.033 8.43033 45.1334 5.83167 48.5938 7.96875ZM41.2201 13.4583C39.6087 15.1218 38.5277 17.2134 37.5879 19.3066C37.5344 19.4257 37.4809 19.5448 37.4258 19.6674C37.174 20.2438 36.9633 20.7782 36.875 21.4062C37.1714 21.3353 37.4676 21.2636 37.7637 21.1914C37.9286 21.1515 38.0936 21.1116 38.2635 21.0706C38.915 20.893 38.915 20.893 39.5312 20.625C39.7174 20.2971 39.7174 20.2971 39.8029 19.8962C39.8432 19.7478 39.8836 19.5995 39.9252 19.4466C39.9864 19.2081 39.9864 19.2081 40.0488 18.9648C40.7782 16.3602 41.9328 13.9124 43.75 11.875C42.8927 11.875 41.8479 12.8986 41.2201 13.4583ZM46.7773 14.8633C45.8655 15.7883 45.2778 16.82 44.6875 17.9687C44.6247 18.0836 44.5618 18.1984 44.4971 18.3167C44.3435 18.6148 44.3435 18.6148 44.375 19.0625C45.666 18.8134 46.8848 18.3968 48.125 17.9687C48.1585 16.6765 48.1366 15.4746 47.8125 14.2187C47.3174 14.2187 47.127 14.5266 46.7773 14.8633ZM52.0312 14.5312C52.0828 15.2531 52.1344 15.975 52.1875 16.7187C52.4453 16.6156 52.7031 16.5125 52.9688 16.4062C52.8787 15.6633 52.5702 15.1609 52.1875 14.5312C52.1359 14.5312 52.0844 14.5312 52.0312 14.5312ZM56.6565 17.149C56.5116 17.1947 56.3668 17.2404 56.2175 17.2875C55.7397 17.4385 55.2624 17.5913 54.7852 17.7441C54.4513 17.8499 54.1175 17.9556 53.7836 18.0611C53.0856 18.2818 52.3879 18.5032 51.6902 18.7249C50.1438 19.2158 48.5949 19.6983 47.046 20.1812C46.425 20.3749 45.8041 20.569 45.1832 20.763C44.8951 20.8531 44.6069 20.9431 44.3188 21.0331C43.6911 21.2292 43.0634 21.4255 42.436 21.6225C41.2744 21.9871 40.1108 22.3437 38.9445 22.6928C36.4854 23.4298 34.0372 24.1991 31.5918 24.9805C31.4331 25.0312 31.2743 25.0818 31.1108 25.1341C30.9553 25.1838 30.7998 25.2335 30.6396 25.2847C30.4879 25.3331 30.3363 25.3816 30.18 25.4315C29.8863 25.5258 29.5927 25.6208 29.2994 25.7165C28.7033 25.9108 28.1093 26.102 27.5034 26.2636C27.3341 26.3111 27.1648 26.3585 26.9904 26.4075C26.8512 26.4427 26.7121 26.478 26.5688 26.5144C26.0883 26.8224 26.0536 27.2822 25.9375 27.8125C25.853 28.2971 25.7893 28.7833 25.7279 29.2713C25.7091 29.4151 25.6904 29.5588 25.671 29.7069C25.6086 30.1867 25.5473 30.6666 25.4861 31.1465C25.4415 31.4913 25.3968 31.8361 25.352 32.1808C25.2308 33.1159 25.1107 34.0512 24.9908 34.9864C24.8652 35.9655 24.7387 36.9444 24.6123 37.9234C24.3867 39.6725 24.1619 41.4218 23.9374 43.1712C23.734 44.7562 23.5298 46.3411 23.325 47.9259C23.0616 49.9645 22.7989 52.0031 22.5368 54.0418C22.4367 54.8198 22.3364 55.5978 22.2359 56.3757C22.1175 57.2919 21.9998 58.2081 21.8827 59.1244C21.8396 59.4606 21.7962 59.7967 21.7527 60.1329C21.6932 60.5918 21.6346 61.0508 21.5762 61.5099C21.5588 61.6428 21.5413 61.7756 21.5234 61.9125C21.433 62.631 21.3454 63.3381 21.4062 64.0625C21.8837 64.3808 22.1471 64.4541 22.7008 64.558C22.8725 64.5908 23.0441 64.6235 23.221 64.6573C23.4099 64.6922 23.5988 64.7271 23.7933 64.763C23.9927 64.8007 24.1921 64.8385 24.3975 64.8773C24.948 64.9814 25.4987 65.0842 26.0494 65.1867C26.6341 65.2958 27.2186 65.4061 27.8031 65.5164C28.9284 65.7283 30.0538 65.9391 31.1794 66.1495C32.0822 66.3182 32.985 66.4873 33.8876 66.6567C34.015 66.6805 34.1423 66.7044 34.2735 66.729C34.5305 66.7773 34.7875 66.8255 35.0445 66.8737C36.6986 67.1841 38.3527 67.4943 40.007 67.8037C42.6106 68.291 45.2136 68.7814 47.8149 69.2808C48.6382 69.4387 49.4617 69.5955 50.2853 69.7523C51.0007 69.8886 51.7157 70.0267 52.4305 70.166C52.9557 70.2678 53.4813 70.3669 54.007 70.4663C54.1843 70.5016 54.3616 70.5368 54.5443 70.5732C54.7075 70.6035 54.8708 70.6339 55.0389 70.6651C55.2449 70.7048 55.2449 70.7048 55.4551 70.7454C56.7424 70.8411 58.0056 70.541 59.2551 70.263C59.423 70.2264 59.5909 70.1898 59.7638 70.1521C60.3135 70.0321 60.8629 69.9107 61.4124 69.7894C61.7955 69.7055 62.1786 69.6216 62.5617 69.5379C63.4638 69.3404 64.3657 69.1422 65.2675 68.9436C66.3962 68.695 67.5252 68.4477 68.6542 68.2004C70.6655 67.7596 72.6766 67.3177 74.6875 66.875C74.7197 65.8196 74.5948 64.8209 74.4384 63.7782C74.4116 63.5946 74.3848 63.4111 74.3572 63.2219C74.283 62.7152 74.208 62.2085 74.1327 61.7019C74.0515 61.1545 73.9714 60.607 73.8911 60.0596C73.7521 59.1119 73.6123 58.1644 73.4722 57.2169C73.2695 55.847 73.0678 54.477 72.8664 53.1069C72.5395 50.8839 72.2119 48.661 71.8837 46.4381C71.565 44.2793 71.2466 42.1204 70.9288 39.9614C70.8994 39.7617 70.8994 39.7617 70.8694 39.5579C70.7711 38.8899 70.6727 38.2219 70.5744 37.5539C69.7591 32.0149 68.9425 26.4761 68.125 20.9375C68.0029 20.9289 67.8809 20.9202 67.7551 20.9113C67.198 20.8716 66.641 20.8313 66.084 20.791C65.8919 20.7774 65.6999 20.7638 65.502 20.7498C62.7467 20.5493 62.7467 20.5493 61.9183 19.6332C61.8389 19.5502 61.7594 19.4672 61.6775 19.3816C61.4252 19.1179 61.1762 18.8514 60.9277 18.584C60.5999 18.2311 60.269 17.8815 59.9359 17.5336C59.8253 17.4113 59.8253 17.4113 59.7124 17.2865C59.3644 16.9234 59.1309 16.7311 58.6309 16.6409C57.9481 16.746 57.3129 16.9366 56.6565 17.149Z" fill="#323539"/>
<path d="M50.3125 30.1562C50.625 30.4687 50.625 30.4687 50.6379 30.7524C50.5235 31.6835 50.2951 32.5376 49.9969 33.4259C49.9501 33.5681 49.9032 33.7103 49.855 33.8568C49.7563 34.1549 49.6568 34.4529 49.5567 34.7506C49.4041 35.2058 49.255 35.662 49.1061 36.1185C49.0094 36.4092 48.9125 36.6998 48.8153 36.9904C48.7712 37.1263 48.727 37.2622 48.6816 37.4022C48.449 38.0842 48.2636 38.6253 47.6562 39.0625C46.7757 39.0625 45.9731 38.7217 45.1508 38.4277C43.8058 38.0024 41.9757 37.784 40.6641 38.3887C40.1516 38.7533 39.8938 38.9397 39.6875 39.5312C39.6559 40.0895 39.7159 40.447 40.0464 40.907C40.814 41.7255 41.7335 42.3626 42.6334 43.0252C45.0033 44.7822 47.3061 46.9278 47.9205 49.9493C48.3456 53.1506 48.0739 56.5336 46.0938 59.2187C44.3634 61.3842 42.3123 62.747 39.5312 63.125C35.8925 63.4069 32.2743 62.5491 29.375 60.2539C28.2063 59.2211 28.2063 59.2211 27.8125 58.5937C27.8111 58.2757 27.8111 58.2757 27.8967 57.9242C27.9296 57.787 27.9625 57.6498 27.9964 57.5085C28.0388 57.351 28.0813 57.1935 28.125 57.0312C28.1743 56.847 28.2236 56.6627 28.2744 56.4729C28.415 55.9588 28.5634 55.4473 28.7151 54.9364C28.8094 54.6165 28.9005 54.2957 28.9917 53.9749C29.0521 53.7699 29.1128 53.5649 29.1736 53.36C29.2272 53.176 29.2809 52.992 29.3362 52.8025C29.5456 52.31 29.6882 52.1247 30.1562 51.875C30.9081 51.8961 31.318 52.1446 31.8945 52.6074C33.2646 53.6485 34.9262 54.6425 36.6992 54.5886C37.0768 54.5452 37.0768 54.5452 37.5098 54.2285C37.9264 53.57 37.9781 53.1019 37.8125 52.3437C37.2472 50.9293 35.8319 49.9946 34.6875 49.0625C32.7965 47.5153 31.4884 45.7321 31.0937 43.2812C30.79 39.8343 31.4524 36.5834 33.6035 33.8184C33.8057 33.5847 34.0105 33.3533 34.2188 33.125C34.2995 33.0299 34.3803 32.9349 34.4635 32.8369C37.895 29.0528 45.8398 27.4617 50.3125 30.1562ZM36.7188 33.4375C36.6084 33.5225 36.498 33.6075 36.3843 33.6951C34.4979 35.2287 33.3247 37.618 32.9688 40C32.7634 42.1565 32.8655 44.2151 34.2719 45.9662C34.8861 46.6382 35.5487 47.2578 36.2207 47.8711C36.3027 47.9464 36.3847 48.0217 36.4692 48.0992C36.9281 48.5191 37.3943 48.9266 37.8711 49.3262C38.8964 50.2191 39.602 51.1738 39.74 52.5574C39.7635 54.6649 39.7635 54.6649 39.0625 55.4687C37.9326 56.3736 36.89 56.5198 35.4688 56.4062C34.0595 56.1351 32.8965 55.521 31.6876 54.7827C31.289 54.5053 31.289 54.5053 30.9375 54.5312C30.7839 54.9835 30.631 55.436 30.4785 55.8887C30.4351 56.0163 30.3917 56.1439 30.347 56.2753C30.141 56.8882 29.9468 57.4846 29.8437 58.125C32.459 60.4888 35.5777 61.3958 39.0574 61.2713C41.0911 61.135 42.8589 60.0566 44.2188 58.5937C45.8988 56.5313 46.4218 53.8269 46.2097 51.2244C45.6653 47.7103 43.1074 45.7074 40.4199 43.7103C39.1633 42.7751 38.0642 41.9269 37.749 40.2966C37.7001 39.273 38.0057 38.2938 38.6621 37.5195C40.237 36.2135 41.912 36.0777 43.9062 36.25C44.6473 36.3543 45.3706 36.5278 46.0938 36.7187C46.302 36.7711 46.5103 36.8232 46.7188 36.875C46.9644 36.1718 47.2092 35.4683 47.4531 34.7645C47.5362 34.5251 47.6195 34.2858 47.7032 34.0466C47.8233 33.7028 47.9425 33.3587 48.0615 33.0145C48.0991 32.9076 48.1367 32.8006 48.1754 32.6904C48.33 32.2409 48.4375 31.8855 48.4375 31.4062C44.4958 30.3099 39.9643 30.8249 36.7188 33.4375Z" fill="#323539"/>
<path d="M5.61523 64.0039C5.89787 63.9982 5.89787 63.9982 6.18622 63.9923C6.45677 63.9914 6.45677 63.9914 6.73279 63.9905C6.89854 63.9892 7.06429 63.9879 7.23507 63.9866C7.65625 64.0625 7.65625 64.0625 7.94895 64.349C8.125 64.6875 8.125 64.6875 8.11523 65.1758C7.96875 65.625 7.96875 65.625 7.69653 65.8064C7.03012 66.0541 6.32794 65.9886 5.625 65.9863C5.4691 65.9888 5.31321 65.9914 5.15259 65.994C5.00233 65.9941 4.85208 65.9942 4.69727 65.9943C4.5605 65.9947 4.42374 65.9952 4.28284 65.9957C3.82333 65.9247 3.60947 65.7956 3.28125 65.4687C3.22266 64.9121 3.22266 64.9121 3.28125 64.375C3.86171 63.7945 4.83147 64.0047 5.61523 64.0039Z" fill="#323539"/>
<path d="M10.1562 63.9941C10.2916 63.9911 10.427 63.9881 10.5664 63.985C10.9375 64.0625 10.9375 64.0625 11.2213 64.3542C11.4062 64.6875 11.4062 64.6875 11.3965 65.0879C11.208 65.5779 11.1076 65.7203 10.625 65.9375C10.1414 65.9513 9.68256 65.9227 9.21875 65.7812C8.88203 65.2762 8.83304 65.117 8.90625 64.5312C9.26864 64.0422 9.56176 63.995 10.1562 63.9941Z" fill="#33363A"/>
</svg>
