<svg width="177" height="50" viewBox="0 0 177 50" fill="none" xmlns="http://www.w3.org/2000/svg">
<path d="M59.0738 15.708C60.68 15.708 62.2863 15.708 63.9413 15.708C64.1397 16.5017 64.1809 17.112 64.1625 17.9204C64.3496 17.7196 64.5367 17.5188 64.7295 17.3119C65.6809 16.2909 66.699 15.6813 68.088 15.5749C68.4664 15.5664 68.8451 15.5649 69.2236 15.5697C69.5181 15.5722 69.5181 15.5722 69.8186 15.5748C71.1187 15.6191 72.0936 15.7705 73.1102 16.6439C74.5773 18.3096 74.8629 20.2542 74.8378 22.4004C74.8365 22.5839 74.8351 22.7673 74.8338 22.9562C74.8028 24.8876 74.7285 26.6569 73.6763 28.3186C73.585 28.5467 73.4937 28.7749 73.3997 29.01C72.3825 31.385 70.9998 32.9223 68.8088 34.292C68.6413 34.3976 68.4739 34.5031 68.3014 34.6118C66.5469 35.4999 64.0927 35.4389 62.1713 35.177C61.6677 34.9511 61.6677 34.9511 61.2863 34.7345C61.278 34.9299 61.2697 35.1252 61.2612 35.3265C61.1786 36.8347 61.0296 38.2091 60.5603 39.6476C60.3412 40.4987 60.2771 41.3831 60.18 42.2566C58.2087 42.2566 56.2373 42.2566 54.2063 42.2566C54.3523 41.5996 54.4983 40.9425 54.6488 40.2655C54.7286 39.7409 54.8029 39.2155 54.87 38.6892C55.0151 37.6261 55.2391 36.6508 55.5338 35.6195C55.6123 35.104 55.6855 34.5876 55.755 34.0708C55.8993 32.9973 56.1213 32.0146 56.4188 30.9735C56.4973 30.4579 56.5705 29.9416 56.64 29.4248C56.7843 28.3513 57.0063 27.3686 57.3038 26.3274C57.4216 25.5543 57.5248 24.7804 57.6218 24.0044C57.7463 23.2301 57.7463 23.2301 57.9675 22.4739C58.2134 21.5933 58.3207 20.7494 58.41 19.8424C58.5508 18.4359 58.7944 17.1047 59.0738 15.708ZM64.605 21.4602C63.1909 23.4148 62.8094 25.9153 62.5308 28.2633C62.5094 28.4373 62.4879 28.6114 62.4659 28.7907C62.4213 29.2217 62.4046 29.6554 62.3925 30.0885C62.8047 30.5975 62.8047 30.5975 63.459 30.5742C63.7003 30.5691 63.9416 30.5639 64.1902 30.5586C64.5538 30.5526 64.5538 30.5526 64.9248 30.5465C65.2046 30.5388 65.2046 30.5388 65.49 30.531C65.49 30.385 65.49 30.2389 65.49 30.0885C65.6817 30.068 65.6817 30.068 65.8772 30.047C66.8713 29.6881 67.4273 28.6113 67.9203 27.7154C68.7071 25.9542 69.3886 23.8437 69.03 21.9027C68.7864 21.3199 68.5087 20.8768 68.145 20.354C66.5975 20.2164 65.7009 20.2339 64.605 21.4602Z" fill="black"/>
<path d="M24.0057 7.93949C24.2455 7.94064 24.4854 7.9418 24.7325 7.943C24.9913 7.94371 25.2501 7.94442 25.5168 7.94516C25.7893 7.94701 26.0618 7.94886 26.3426 7.95077C26.7526 7.95227 26.7526 7.95227 27.171 7.9538C27.849 7.95642 28.527 7.96006 29.205 7.9646C29.083 9.00625 28.9307 9.97184 28.6597 10.9876C28.5102 11.6398 28.4162 12.2942 28.32 12.9563C28.2058 13.7413 28.0887 14.4948 27.8498 15.2517C27.6497 15.9522 27.6209 16.5321 27.6563 17.2566C27.816 17.1243 27.9757 16.992 28.1402 16.8556C29.5592 15.7521 30.6095 15.4558 32.3993 15.4452C32.6409 15.4421 32.8824 15.439 33.1313 15.4357C34.4026 15.5258 35.4022 15.8849 36.285 16.8142C37.4997 18.8675 37.4014 21.0691 36.8658 23.3269C36.7747 23.6802 36.7747 23.6802 36.6817 24.0407C36.435 25.0786 36.3074 26.1248 36.1666 27.1813C36.0651 27.8673 35.9145 28.5131 35.731 29.1802C35.5359 30.0084 35.4373 30.8531 35.3248 31.6959C35.1174 32.8691 34.804 34.0212 34.515 35.177C32.6897 35.177 30.8644 35.177 28.9838 35.177C29.0668 33.367 29.1678 31.7832 29.7011 30.0487C29.9622 29.0769 30.0726 28.0897 30.1946 27.0923C30.3113 26.3274 30.3113 26.3274 30.5437 25.4796C30.8073 24.4673 30.8034 23.4961 30.7814 22.4558C30.7794 22.2738 30.7774 22.0918 30.7754 21.9044C30.7702 21.4613 30.7623 21.0183 30.7538 20.5752C29.6434 20.3409 29.6434 20.3409 28.5966 20.6582C28.4323 20.7768 28.268 20.8955 28.0988 21.0177C27.8797 21.0907 27.6607 21.1637 27.435 21.2389C27.2978 21.6454 27.2978 21.6454 27.2138 22.1239C27.0774 22.4539 26.9341 22.7811 26.7851 23.1056C26.2451 24.2861 25.8389 25.3215 25.665 26.6178C25.5509 27.4148 25.4375 28.1924 25.2225 28.9685C24.9395 30.006 24.8322 31.0673 24.7048 32.1332C24.5231 33.1673 24.1967 34.1714 23.895 35.177C22.0697 35.177 20.2444 35.177 18.3638 35.177C18.4466 33.4874 18.5524 32.0025 19.0966 30.4039C19.2645 29.8118 19.3182 29.264 19.3594 28.6504C19.4287 27.6393 19.6506 26.7866 19.9661 25.8279C20.2382 24.8433 20.342 23.8379 20.4734 22.8265C20.5872 22.0492 20.8031 21.33 21.0188 20.5752C21.0973 20.0597 21.1705 19.5434 21.24 19.0265C21.3844 17.953 21.6063 16.9703 21.9038 15.9292C21.9823 15.4137 22.0555 14.8973 22.125 14.3805C22.2694 13.307 22.4913 12.3243 22.7888 11.2832C22.9139 10.4669 23.0241 9.64976 23.1284 8.83054C23.2652 7.97311 23.2652 7.97311 24.0057 7.93949Z" fill="black"/>
<path d="M97.7925 15.708C99.6908 15.708 101.589 15.708 103.545 15.708C104.523 21.1663 104.523 21.1663 104.579 23.8206C104.609 24.9944 104.804 26.0749 105.094 27.2124C105.136 27.0846 105.177 26.9567 105.221 26.825C105.811 25.0253 106.465 23.2491 107.135 21.4775C107.261 21.1396 107.384 20.8007 107.505 20.4611C109.027 16.1996 109.027 16.1996 109.519 15.708C109.945 15.6886 110.372 15.6843 110.799 15.6864C111.058 15.6871 111.316 15.6878 111.583 15.6885C111.856 15.6904 112.128 15.6922 112.409 15.6941C112.819 15.6956 112.819 15.6956 113.237 15.6972C113.915 15.6998 114.593 15.7034 115.271 15.708C115.138 16.7838 114.976 17.4554 114.386 18.3628C114.223 18.7399 114.059 19.1172 113.901 19.4967C113.58 20.2413 113.205 20.959 112.838 21.6814C112.086 23.1594 112.086 23.1594 111.399 24.6681C111.047 25.4894 110.653 26.2794 110.245 27.0741C109.97 27.6372 109.725 28.2091 109.481 28.786C109.152 29.5333 108.781 30.2591 108.413 30.9873C108.337 31.138 108.261 31.2887 108.183 31.444C108.034 31.7391 107.885 32.0341 107.736 32.329C107.543 32.7133 107.351 33.0986 107.159 33.484C106.865 34.069 106.545 34.6201 106.2 35.177C106.11 35.3296 106.02 35.4821 105.928 35.6393C105.831 35.8016 105.733 35.9639 105.633 36.1311C105.542 36.2854 105.45 36.4397 105.356 36.5986C105.269 36.7136 105.183 36.8285 105.094 36.9469C104.948 36.9469 104.802 36.9469 104.651 36.9469C104.601 37.1026 104.551 37.2583 104.499 37.4188C104.15 38.1825 103.669 38.7454 103.103 39.3529C102.994 39.4692 102.886 39.5856 102.775 39.7055C101.251 41.3035 99.1775 43.0105 96.8937 43.1969C96.7522 43.1786 96.6108 43.1604 96.465 43.1416C94.9163 39.887 94.9163 39.887 94.9163 38.2743C95.0688 38.2124 95.2214 38.1506 95.3786 38.0868C97.823 37.0689 97.823 37.0689 99.5625 35.177C99.7085 35.177 99.8546 35.177 100.005 35.177C100.073 34.999 100.142 34.8211 100.212 34.6377C100.448 34.0708 100.448 34.0708 100.669 33.8496C100.764 32.5648 100.545 31.5672 100.18 30.34C99.9122 29.279 99.8005 28.2052 99.6792 27.1191C99.5597 26.3086 99.3487 25.5645 99.12 24.7788C99.038 24.3054 98.964 23.8305 98.8988 23.3545C98.7824 22.5514 98.6601 21.7719 98.4424 20.99C98.2289 20.1074 98.1358 19.267 98.0682 18.3637C97.9955 17.4767 97.8908 16.5925 97.7925 15.708Z" fill="black"/>
<path d="M53.5719 16.6888C54.8326 17.7464 55.7124 19.224 55.9209 20.8656C56.29 25.9877 56.29 25.9877 55.0913 28.0973C55.0182 28.3757 54.9452 28.654 54.87 28.9408C54.797 29.1735 54.724 29.4063 54.6488 29.646C54.3202 29.7555 54.3202 29.7555 53.985 29.8673C53.963 30.0312 53.9411 30.1952 53.9185 30.3642C53.6026 31.6081 52.5175 32.5799 51.4821 33.2965C50.8875 33.6283 50.8875 33.6283 50.445 33.6283C50.445 33.7743 50.445 33.9204 50.445 34.0708C47.9814 35.3092 45.2801 35.7223 42.5941 34.9575C40.5238 34.0567 39.1454 32.7464 38.2467 30.676C37.8968 29.6036 37.9058 28.5392 37.9167 27.4198C37.9173 27.1781 37.9179 26.9364 37.9185 26.6874C37.9678 24.5916 38.4496 22.8807 39.3825 21.0177C39.5285 21.0177 39.6746 21.0177 39.825 21.0177C39.8433 20.8626 39.8615 20.7074 39.8803 20.5476C40.271 19.05 41.317 18.1799 42.48 17.2566C42.6397 17.1197 42.7994 16.9829 42.964 16.8418C43.365 16.5929 43.365 16.5929 44.25 16.5929C44.25 16.4469 44.25 16.3009 44.25 16.1504C46.9467 14.6224 51.1142 14.8741 53.5719 16.6888ZM45.5498 21.2942C44.0409 23.5072 43.6035 25.8751 43.8075 28.5398C43.9696 29.2964 44.1077 29.703 44.6095 30.2821C45.3957 30.6545 46.07 30.7397 46.905 30.531C48.7561 29.4244 49.4323 27.8206 49.9472 25.8158C50.3487 23.9119 50.5893 22.0816 49.56 20.354C49.0424 19.9435 48.6951 19.9141 48.0389 19.8285C46.9402 19.9604 46.2957 20.5046 45.5498 21.2942Z" fill="black"/>
<path d="M99.5625 7.74336C99.3508 9.37745 99.1109 10.8719 98.4563 12.3894C98.3119 12.3657 98.1676 12.342 98.0189 12.3177C96.7907 12.1492 95.9617 12.0603 94.9163 12.8319C94.0576 13.853 94.0106 14.3041 93.81 15.708C94.9052 15.708 96.0004 15.708 97.1288 15.708C97.334 16.5288 97.3682 16.7415 97.178 17.5021C97.1171 17.7523 97.1171 17.7523 97.0549 18.0076C97.0108 18.1796 96.9667 18.3516 96.9213 18.5288C96.8781 18.7042 96.8349 18.8795 96.7904 19.0603C96.6838 19.492 96.5746 19.923 96.465 20.354C95.2968 20.354 94.1286 20.354 92.925 20.354C92.8657 20.6825 92.8064 21.0111 92.7452 21.3496C92.6578 21.8289 92.5702 22.3083 92.4825 22.7876C92.4564 22.9309 92.4304 23.0742 92.4035 23.2218C91.8464 26.2781 91.8464 26.2781 91.5837 27.24C91.3249 28.3096 91.1923 29.3833 91.0452 30.4731C90.9245 31.2545 90.7102 31.9844 90.4913 32.7434C90.4208 33.33 90.3681 33.9154 90.3245 34.5046C90.27 34.9558 90.27 34.9558 90.0488 35.177C89.6386 35.1963 89.2278 35.2007 88.8172 35.1986C88.5684 35.1979 88.3195 35.1972 88.0631 35.1964C87.8012 35.1946 87.5392 35.1927 87.2693 35.1908C87.0065 35.1898 86.7437 35.1888 86.4729 35.1878C85.8211 35.1852 85.1693 35.1815 84.5175 35.177C84.271 34.378 84.3803 33.8746 84.6048 33.07C84.8227 32.179 84.9323 31.2723 85.0568 30.3642C85.1813 29.646 85.1813 29.646 85.4025 28.8864C85.6324 28.0666 85.7472 27.2832 85.845 26.4381C85.9741 25.3221 86.1953 24.3076 86.5088 23.2301C86.6003 22.7199 86.6836 22.2082 86.7577 21.6952C86.7947 21.4423 86.8318 21.1893 86.87 20.9287C86.8968 20.739 86.9236 20.5494 86.9513 20.354C86.2941 20.354 85.637 20.354 84.96 20.354C84.6953 19.56 84.7877 19.1026 84.9185 18.2799C84.9565 18.0318 84.9944 17.7836 85.0335 17.528C85.1686 16.8753 85.3541 16.3155 85.6238 15.708C86.7189 15.5985 86.7189 15.5985 87.8363 15.4867C87.8873 15.2677 87.9384 15.0487 87.991 14.823C88.6795 11.9935 88.6795 11.9935 89.5734 10.7552C89.8439 10.3989 89.8439 10.3989 90.0289 9.95835C90.7546 8.61873 92.2586 7.89719 93.6441 7.42533C95.6624 6.87704 97.6929 6.69994 99.5625 7.74336Z" fill="black"/>
<path d="M14.3536 15.4452C14.527 15.4451 14.7003 15.445 14.879 15.4448C16.1528 15.4564 17.3541 15.5828 18.585 15.9292C19.0459 17.4171 18.2449 18.967 17.7 20.354C16.0245 20.1585 16.0245 20.1585 15.4737 20.0083C14.4422 19.7754 13.4076 19.8861 12.39 20.1327C12.1267 21.2612 12.1267 21.2612 12.39 22.3451C12.7569 22.4972 13.126 22.644 13.4962 22.7876C14.9146 23.5744 16.1008 24.5496 17.0362 25.885C17.0362 26.031 17.0362 26.177 17.0362 26.3274C17.1823 26.3274 17.3283 26.3274 17.4787 26.3274C18.0235 27.9615 17.9558 30.0193 17.2022 31.568C16.7869 32.273 16.3764 32.9175 15.7087 33.4071C15.4897 33.4071 15.2707 33.4071 15.045 33.4071C14.9355 33.7356 14.9355 33.7356 14.8237 34.0708C11.9925 35.519 8.64891 35.6467 5.62805 34.7622C4.51092 34.378 4.51092 34.378 3.9825 33.8496C4.05618 32.3504 4.65017 30.972 5.31 29.646C6.13634 29.7562 6.59599 29.8396 7.30125 30.3097C7.97096 30.4204 7.97096 30.4204 8.71172 30.4618C9.08391 30.4905 9.08391 30.4905 9.46362 30.5197C10.1149 30.53 10.6544 30.4665 11.2837 30.3097C11.4506 29.2082 11.4506 29.2082 11.505 28.0973C11.2129 27.9513 10.9209 27.8053 10.62 27.6549C10.62 27.5089 10.62 27.3628 10.62 27.2124C10.3941 27.1919 10.3941 27.1919 10.1637 27.1709C9.30256 26.9327 8.62113 26.4919 7.965 25.885C7.965 25.7389 7.965 25.5929 7.965 25.4425C7.82924 25.3846 7.69348 25.3267 7.55361 25.267C6.72772 24.8014 6.46391 24.116 6.195 23.2301C5.92656 21.297 6.17817 19.7475 7.30125 18.1416C7.76899 17.5611 8.22979 17.0119 8.85 16.5929C9.14205 16.5929 9.4341 16.5929 9.735 16.5929C9.735 16.4469 9.735 16.3009 9.735 16.1504C11.0555 15.3251 12.8422 15.4439 14.3536 15.4452Z" fill="black"/>
<path d="M119.406 15.7218C119.917 15.9292 119.917 15.9292 120.36 16.3717C120.498 16.8418 120.498 16.8418 120.581 17.2566C120.809 17.1243 121.038 16.992 121.273 16.8556C121.557 16.691 121.843 16.5302 122.13 16.3717C122.313 16.2545 122.496 16.1373 122.685 16.0165C123.808 15.5679 124.858 15.5944 126.057 15.5973C126.286 15.5911 126.515 15.5848 126.75 15.5783C128.598 15.5737 130.056 16.003 131.462 17.2371C132.999 18.787 133.007 20.4532 133.027 22.5249C133.005 25.9239 132.345 28.9329 130.302 31.7063C130.19 31.8606 130.078 32.0149 129.963 32.1738C129.809 32.3462 129.809 32.3462 129.652 32.5221C129.506 32.5221 129.36 32.5221 129.21 32.5221C129.164 32.6499 129.119 32.7777 129.072 32.9093C128.652 33.596 128.134 33.9236 127.44 34.292C127.21 34.417 127.21 34.417 126.975 34.5444C124.835 35.5091 121.714 35.7251 119.485 34.9013C118.514 34.4309 117.866 34.0915 117.262 33.1858C116.899 33.5493 116.988 33.9987 116.958 34.4994C116.873 35.5508 116.654 36.4482 116.323 37.4447C116.054 38.4274 115.961 39.4312 115.852 40.4427C115.705 41.1957 115.532 41.6601 115.05 42.2566C114.431 42.4047 113.924 42.3094 113.28 42.2566C113.205 40.6682 113.3 39.3208 113.768 37.8007C114.028 36.8639 114.147 35.9144 114.283 34.9532C114.387 34.2847 114.541 33.6515 114.718 33C114.866 32.3614 114.956 31.7189 115.05 31.0702C115.161 30.3153 115.279 29.619 115.492 28.8855C115.782 27.853 115.9 26.8158 116.032 25.7527C116.156 25 116.156 25 116.377 24.3441C116.634 23.5657 116.727 22.827 116.82 22.0133C116.941 20.9522 117.145 20.0358 117.484 19.0266C117.518 18.6541 117.542 18.2804 117.553 17.9065C117.625 17.0685 117.696 16.8271 118.203 16.109C118.811 15.708 118.811 15.708 119.406 15.7218ZM121.024 19.6903C121.024 19.8363 121.024 19.9823 121.024 20.1327C120.805 20.2058 120.586 20.2788 120.36 20.354C120.012 20.8697 119.742 21.3451 119.475 21.9027C119.397 22.0664 119.318 22.2301 119.237 22.3987C118.192 24.8944 117.741 28.0767 118.583 30.6813C119.096 31.8344 119.837 32.3049 120.941 32.8263C122.865 33.5326 124.708 33.0261 126.555 32.3009C126.555 32.1549 126.555 32.0089 126.555 31.8584C126.683 31.7991 126.811 31.7398 126.942 31.6787C128.707 30.7474 129.419 29.0225 130.095 27.2124C130.781 24.6429 131.27 21.9684 130.095 19.469C129.12 18.2954 127.742 17.8634 126.268 17.6127C124.376 17.516 122.175 18.1277 121.024 19.6903Z" fill="black"/>
<path d="M78.6544 15.6828C78.8943 15.684 79.1341 15.6852 79.3812 15.6864C79.64 15.6871 79.8989 15.6878 80.1655 15.6885C80.438 15.6904 80.7106 15.6922 80.9913 15.6941C81.4014 15.6956 81.4014 15.6956 81.8197 15.6972C82.4977 15.6998 83.1757 15.7034 83.8537 15.708C83.7127 17.0575 83.537 18.3934 83.3145 19.7317C83.2875 19.9016 83.2605 20.0714 83.2328 20.2464C83.0738 21.2075 82.8365 22.0834 82.5262 23.0089C82.4811 23.3901 82.4486 23.7731 82.4295 24.1565C82.3477 25.2382 82.1147 26.1982 81.8089 27.2357C81.5627 28.176 81.4385 29.1271 81.3025 30.0885C81.2172 30.6339 81.1094 31.1473 80.9637 31.6787C80.7492 32.5508 80.6664 33.3757 80.6111 34.2696C80.535 34.7345 80.535 34.7345 80.0925 35.177C79.5345 35.2272 79.5345 35.2272 78.8393 35.2202C78.5912 35.2188 78.3431 35.2174 78.0874 35.2159C77.8273 35.2122 77.5672 35.2085 77.2992 35.2046C77.0374 35.2027 76.7756 35.2007 76.5058 35.1986C75.8576 35.1934 75.2094 35.1861 74.5612 35.177C74.7017 33.8318 74.8775 32.5008 75.1005 31.167C75.1275 30.9991 75.1544 30.8311 75.1822 30.658C75.3102 29.8873 75.4601 29.1551 75.6753 28.4024C75.8933 27.6388 76.0108 26.9073 76.11 26.12C76.2418 25.1415 76.401 24.208 76.6631 23.2577C76.8127 22.6219 76.901 21.982 76.995 21.3357C77.1075 20.564 77.2316 19.8592 77.4513 19.1095C77.6998 18.215 77.7639 17.3528 77.8256 16.4287C77.9022 15.7255 77.9416 15.7152 78.6544 15.6828Z" fill="black"/>
<path d="M167.362 15.5835C167.577 15.5782 167.792 15.573 168.014 15.5675C169.782 15.5711 171.243 16.027 172.584 17.2136C173.15 17.7955 173.45 18.1475 173.488 18.9712C173.188 19.5714 172.951 19.8256 172.354 20.1327C171.625 20.0386 171.267 19.7806 170.75 19.2754C169.529 18.195 168.28 17.8023 166.655 17.8529C165.84 17.9636 165.147 18.2704 164.389 18.5841C164.17 18.5841 163.951 18.5841 163.725 18.5841C163.579 18.8761 163.433 19.1681 163.283 19.469C163.136 19.469 162.99 19.469 162.84 19.469C162.752 20.9775 162.752 20.9775 163.283 22.3451C164.665 23.472 166.41 24.0979 168.109 24.5713C169.453 24.9669 170.471 25.8073 171.469 26.7699C172.062 27.9567 171.885 29.8954 171.69 31.1947C171.311 32.0399 170.831 32.5778 170.141 33.1858C169.94 33.3912 169.74 33.5965 169.533 33.8081C167.112 35.4372 164.348 35.4952 161.513 35.177C159.966 34.8488 158.417 34.0628 157.447 32.7848C157.242 32.0666 157.38 31.4741 157.53 30.7522C157.751 30.531 157.751 30.531 158.456 30.4204C159.3 30.531 159.3 30.531 159.596 30.8455C159.69 30.979 159.784 31.1125 159.881 31.25C160.788 32.4401 162.079 32.7159 163.504 32.9646C165.203 33.0338 167.096 32.7199 168.468 31.6648C169.145 30.7441 169.423 29.9052 169.256 28.7611C168.722 28.1526 168.722 28.1526 168.15 27.6549C168.15 27.5088 168.15 27.3628 168.15 27.2124C167.842 27.1713 167.842 27.1713 167.528 27.1294C166.823 26.9912 166.823 26.9912 166.159 26.5487C165.848 26.4338 165.535 26.3284 165.218 26.2306C163.361 25.6264 161.752 24.99 160.531 23.4237C159.913 22.1848 159.96 20.827 160.38 19.5313C161.216 17.6945 162.431 16.6822 164.259 15.8933C165.285 15.5611 166.292 15.5715 167.362 15.5835Z" fill="black"/>
<path d="M144.296 15.7494C144.919 15.9292 144.919 15.9292 145.14 16.1504C145.235 17.4376 145.017 18.4437 144.652 19.6738C144.392 20.6808 144.274 21.6984 144.15 22.7297C144.034 23.4527 143.824 24.0858 143.591 24.7788C143.403 25.8059 143.28 26.8403 143.149 27.8761C143.113 28.1006 143.077 28.325 143.041 28.5562C142.883 29.7016 142.819 30.6904 143.426 31.7115C144.447 32.6847 145.974 32.9362 147.34 32.9905C148.727 32.8997 150.026 32.5311 151.335 32.0796C151.335 31.9336 151.335 31.7876 151.335 31.6372C151.699 31.2637 152.068 30.8952 152.441 30.531C153.586 28.8134 153.837 26.3154 154.116 24.3026C154.215 23.6444 154.368 23.0221 154.544 22.3814C154.691 21.7382 154.772 21.0907 154.861 20.4369C155.16 18.4705 155.16 18.4705 155.76 17.6991C156.466 17.4831 156.86 17.3641 157.53 17.6991C157.599 19.3241 157.562 20.7031 157.026 22.2432C156.851 22.8395 156.796 23.3849 156.756 24.0044C156.686 25.0384 156.456 25.9225 156.132 26.903C155.983 27.4256 155.931 27.8885 155.898 28.4292C155.703 30.5246 154.379 32.2305 152.884 33.6283C151.059 34.9987 149.149 35.2931 146.938 35.2876C146.711 35.2939 146.484 35.3002 146.251 35.3066C144.276 35.3116 142.76 34.7311 141.254 33.4486C140.02 31.8519 140.419 28.8354 140.616 26.9445C140.749 26.1168 140.972 25.3299 141.211 24.5273C141.461 23.5843 141.581 22.6288 141.718 21.6641C141.838 20.9104 142.054 20.2025 142.264 19.469C142.364 18.7314 142.457 17.994 142.539 17.254C142.801 16.2191 143.199 15.6849 144.296 15.7494Z" fill="black"/>
<path d="M139.83 7.93695C140.494 7.9646 140.494 7.9646 140.715 8.18584C140.841 9.90848 140.744 11.4544 140.227 13.0998C139.962 14.03 139.848 14.975 139.712 15.9309C139.607 16.6042 139.455 17.244 139.277 17.9005C139.081 18.7191 138.967 19.5526 138.834 20.3834C138.746 20.8925 138.639 21.3775 138.503 21.875C138.215 22.9454 138.1 24.042 137.963 25.14C137.839 25.885 137.839 25.885 137.61 26.5711C137.4 27.2009 137.332 27.7143 137.299 28.3739C137.222 29.421 136.994 30.3171 136.661 31.3088C136.501 31.8966 136.466 32.4262 136.442 33.0337C136.399 33.6531 136.373 33.9674 135.982 34.4554C135.612 34.7622 135.612 34.7622 134.963 35.177C134.423 35.0387 134.423 35.0387 133.856 34.7345C133.412 33.6512 133.796 32.7196 134.116 31.6527C134.373 30.6984 134.499 29.7359 134.638 28.7585C134.742 28.09 134.896 27.4568 135.073 26.8053C135.221 26.1667 135.311 25.5242 135.405 24.8756C135.516 24.1206 135.634 23.4243 135.848 22.6908C136.137 21.6583 136.255 20.6212 136.387 19.558C136.511 18.8053 136.511 18.8053 136.733 18.1485C136.988 17.3747 137.082 16.6414 137.175 15.8324C137.304 14.7114 137.525 13.693 137.839 12.6106C137.916 12.1324 137.985 11.653 138.046 11.1726C138.508 7.99203 138.508 7.99203 139.83 7.93695Z" fill="black"/>
<path d="M84.0474 8.3656C84.8529 9.19476 85.0352 9.87049 85.0706 11.0205C85.0456 12.1587 84.8966 12.8552 84.069 13.6555C82.9767 14.3627 81.8416 14.422 80.5765 14.2976C79.5938 13.7966 79.1718 13.1824 78.765 12.1681C78.5142 11.1118 78.7181 10.3695 79.2628 9.44414C79.7928 8.68279 80.2816 8.16804 81.1434 7.79867C82.2523 7.67548 83.1139 7.77716 84.0474 8.3656Z" fill="black"/>
<path d="M159.3 7.9646C159.602 8.56824 159.494 8.98441 159.424 9.65155C159.402 9.87343 159.379 10.0953 159.356 10.3239C159.338 10.4945 159.319 10.665 159.3 10.8407C159.455 10.8356 159.609 10.8304 159.768 10.8252C159.97 10.8212 160.171 10.8172 160.379 10.8131C160.679 10.8054 160.679 10.8054 160.985 10.7975C161.513 10.8407 161.513 10.8407 161.955 11.2832C162.038 11.9331 162.038 11.9331 161.955 12.6106C161.31 13.238 160.793 13.3683 159.908 13.4264C159.711 13.441 159.514 13.4555 159.31 13.4705C159.161 13.4788 159.011 13.4871 158.858 13.4956C158.831 13.6342 158.804 13.7728 158.776 13.9156C158.739 14.0964 158.702 14.2772 158.664 14.4635C158.628 14.6432 158.592 14.8228 158.555 15.008C158.415 15.4867 158.415 15.4867 157.973 15.9292C157.184 15.9707 157.184 15.9707 156.424 15.9292C156.203 15.708 156.203 15.708 156.175 14.9751C156.196 14.3383 156.257 13.8749 156.424 13.2743C156.267 13.2769 156.109 13.2795 155.948 13.2821C155.744 13.2841 155.541 13.2861 155.331 13.2882C155.129 13.2907 154.926 13.2933 154.717 13.2959C154.211 13.2743 154.211 13.2743 153.99 13.0531C153.908 11.7608 153.908 11.7608 153.99 11.2832C154.723 10.7944 154.951 10.791 155.801 10.8131C156.001 10.817 156.2 10.821 156.406 10.8252C156.558 10.8303 156.71 10.8354 156.866 10.8407C156.904 10.6542 156.942 10.4677 156.98 10.2755C157.034 10.0331 157.088 9.79069 157.143 9.54093C157.194 9.29966 157.245 9.05839 157.298 8.8098C157.53 8.18584 157.53 8.18584 157.966 7.87645C158.506 7.71631 158.782 7.75045 159.3 7.9646Z" fill="black"/>
</svg>
