<svg xmlns:xlink="http://www.w3.org/1999/xlink" xmlns="http://www.w3.org/2000/svg" version="1.1" viewBox="0 0 21 16" height="16px" width="21px">
    <title>stacked-area-up</title>
    <g fill-rule="evenodd" fill="none" stroke-width="1" stroke="none" id="Page-1">
        <g fill-rule="nonzero" fill="#FFFFFF" transform="translate(-950.000000, -56.000000)" id="Desktop-HD-Copy">
            <g transform="translate(950.000000, 56.000000)" id="stacked-area-up">
                <path opacity="0.25" id="Path" d="M20.03,2.00769137 C20.03,0.497691372 18.43,-0.462308628 17.1,0.227691372 L12.23,2.75769137 C12.01,2.86769137 11.76,2.89769137 11.52,2.83769137 L8.645,2.11769137 C8.135,1.98769137 7.615,2.05769137 7.165,2.31769137 L1.01,5.82769137 C0.38,6.17769137 0,6.83769137 0,7.55769137 L0,13.9676914 C0,15.0676914 0.89,15.9676914 2,15.9676914 L18,15.9676914 C19.1,15.9676914 20,15.0676914 20,13.9676914 L20,1.96769137 L20.03,2.00769137 Z"></path>
                <path id="Path" d="M7.15,9.33569137 L0.67,11.7556914 C0.27,11.8956914 0.02,12.2656914 0.02,12.6856914 L0.02,13.9856914 C0.02,15.0856914 0.91,15.9856914 2.02,15.9856914 L18.02,15.9856914 C19.12,15.9856914 20.02,15.0856914 20.02,13.9856914 L20.02,7.98569137 C20.02,7.28569137 19.32,6.79569137 18.66,7.04569137 L12.88,9.64569137 C12.31,9.85569137 11.68,9.88569137 11.09,9.74569137 L8.9,9.19569137 C8.3,9.04569137 7.68,9.07569137 7.11,9.29569137 L7.15,9.33569137 Z"></path>
            </g>
        </g>
    </g>
</svg>